<svg width="15" height="16" viewBox="0 0 15 16" fill="none" xmlns="http://www.w3.org/2000/svg">
<path d="M3.75 6.25025C3.75 5.71975 3.96074 5.21098 4.33586 4.83586C4.71098 4.46074 5.21975 4.25 5.75025 4.25H12.2498C12.5124 4.25 12.7725 4.30174 13.0152 4.40226C13.2579 4.50278 13.4784 4.65012 13.6641 4.83586C13.8499 5.0216 13.9972 5.24211 14.0977 5.48479C14.1983 5.72747 14.25 5.98757 14.25 6.25025V12.7498C14.25 13.0124 14.1983 13.2725 14.0977 13.5152C13.9972 13.7579 13.8499 13.9784 13.6641 14.1641C13.4784 14.3499 13.2579 14.4972 13.0152 14.5977C12.7725 14.6983 12.5124 14.75 12.2498 14.75H5.75025C5.48757 14.75 5.22747 14.6983 4.98479 14.5977C4.74211 14.4972 4.5216 14.3499 4.33586 14.1641C4.15012 13.9784 4.00278 13.7579 3.90226 13.5152C3.80174 13.2725 3.75 13.0124 3.75 12.7498V6.25025Z" stroke="white" stroke-width="1.2" stroke-linecap="round" stroke-linejoin="round"/>
<path d="M1.509 11.5527C1.27901 11.4216 1.0877 11.2321 0.954431 11.0034C0.821158 10.7746 0.750638 10.5147 0.75 10.25V2.75C0.75 1.925 1.425 1.25 2.25 1.25H9.75C10.3125 1.25 10.6185 1.53875 10.875 2" stroke="white" stroke-width="1.2" stroke-linecap="round" stroke-linejoin="round"/>
</svg>
